# xmcd
# 
# Track frame offsets:
#     150
#     33444
#     47452
#     66249
#     81964
#     102342
#     117601
#     133778
#     147713
#     167399
#     186446
#     205569
#     226156
#     241136
#     249556
#     261116
#     290476
# 
# Disc length: 4269
# 
# Revision: 2
# Processed by: cddbd v1.5.2PL0 Copyright (c) Steve Scherf et al.
# Submitted via: fre:ac v1.0.17
# 
DISCID=f710ab11
DTITLE=Various Artist - Billie-Eve
DYEAR=2011
DGENRE=Soul
TTITLE0=Ayo - How many people
TTITLE1=Ayo - I'm gonna dance
TTITLE2=Ayo - Black spoon
TTITLE3=Ayo - I can't
TTITLE4=Ayo - Flowers
TTITLE5=Ayo - Real love
TTITLE6=Ayo - Julia
TTITLE7=Ayo - My man
TTITLE8=Ayo - It's too late
TTITLE9=Ayo - Who are they?
TTITLE10=Ayo - We've got to
TTITLE11=Ayo - Before
TTITLE12=Ayo - It hurts feat. Matthieu Chedid
TTITLE13=Ayo - Believe feat. Saul Williams
TTITLE14=Ayo - I want you back
TTITLE15=Ayo - I'm sorry
TTITLE16=Inconnu - Data track
EXTD=
EXTT0=
EXTT1=
EXTT2=
EXTT3=
EXTT4=
EXTT5=
EXTT6=
EXTT7=
EXTT8=
EXTT9=
EXTT10=
EXTT11=
EXTT12=
EXTT13=
EXTT14=
EXTT15=
EXTT16=
PLAYORDER=
